<svg width="35" height="32" viewBox="0 0 35 32" fill="none" xmlns="http://www.w3.org/2000/svg">
<g clip-path="url(#clip0_208_867)">
<mask id="mask0_208_867" style="mask-type:luminance" maskUnits="userSpaceOnUse" x="0" y="0" width="35" height="32">
<path d="M35 0H0V32H35V0Z" fill="white"/>
</mask>
<g mask="url(#mask0_208_867)">
<path fill-rule="evenodd" clip-rule="evenodd" d="M7.74738 19.7599C7.72504 13.3529 13.1384 8.46106 19.6362 7.99713C26.5827 7.50152 32.387 12.1492 32.8515 18.6759C33.3165 25.2026 30.2861 29.8587 23.1409 31.2686C17.4217 32.3968 11.1725 29.6924 8.76666 24.4508C8.69545 24.2943 8.56141 24.176 8.39758 24.1238C8.23328 24.0726 8.05596 24.0927 7.90749 24.1798C7.40622 24.4797 6.79791 24.6078 6.17797 24.4983C4.80775 24.2566 3.89132 22.9468 4.13287 21.5755C4.37443 20.2046 5.68275 19.2875 7.05297 19.5292C7.3015 19.5744 7.53422 19.6527 7.74738 19.7599Z" fill="#FED6B5"/>
<path fill-rule="evenodd" clip-rule="evenodd" d="M26.9338 10.0729C26.9338 10.0729 30.6852 13.6083 31.0049 20.2412C31.3023 26.412 26.6806 29.7876 22.7883 30.8208C22.7883 30.8208 29.953 30.7877 32.1005 24.1487C34.3215 17.2806 30.4887 10.3855 26.9338 10.0729Z" fill="#FFF6EF"/>
<path fill-rule="evenodd" clip-rule="evenodd" d="M27.6604 10.1979C27.6604 10.1979 25.8564 12.7137 22.409 13.1921C18.9616 13.6704 14.0272 12.3685 13.8936 15.8573C13.7605 19.3461 21.0067 21.0779 21.4461 19.927C21.8859 18.7755 22.4993 16.4493 22.4993 16.4493C22.4993 16.4493 25.472 15.2192 26.6574 15.7013L33.0701 18.96L32.93 21.2205C32.93 21.2205 31.6058 22.1758 28.467 21.7673C28.467 21.7673 26.9395 21.5149 26.0938 20.2446C25.2425 18.9665 24.8334 18.7098 24.3526 18.783C23.7988 18.8673 23.533 19.1794 23.4586 19.6121C23.3846 20.0443 22.9629 22.0156 19.8673 23.2485C16.7979 24.4708 15.3425 23.7199 14.844 24.7279C14.3809 25.6641 15.1679 27.8217 17.9768 29.3723C20.8024 30.9318 24.3824 30.5913 24.3824 30.5913C24.3824 30.5913 20.3947 32.0292 17.9856 31.4996C15.5766 30.97 11.8518 28.5982 10.7869 27.5557C9.72249 26.5128 8.63386 24.0823 8.63386 24.0823C8.63386 24.0823 6.42588 25.1005 5.2586 24.0129C4.09083 22.9253 4.04243 22.1735 4.59163 20.7607C5.13991 19.3484 7.46099 19.9493 8.37927 20.5236C9.29709 21.098 9.61172 20.8851 9.85374 20.3206C10.0953 19.7565 10.3326 16.2602 10.3326 16.2602C10.3326 16.2602 11.5469 12.9848 14.4502 12.4645C17.3526 11.9442 21.6173 12.3103 23.6056 11.464C25.5939 10.6181 27.6604 10.1979 27.6604 10.1979Z" fill="#FD987F"/>
<path fill-rule="evenodd" clip-rule="evenodd" d="M27.3948 9.50749L31.2998 13.374C31.2998 13.374 32.5066 11.5905 31.5548 9.81305C30.603 8.03512 28.6943 8.07797 28.6943 8.07797L27.3948 9.50749Z" fill="#F9C612"/>
<path fill-rule="evenodd" clip-rule="evenodd" d="M28.4169 9.01751C28.4169 9.01751 29.701 9.60674 30.2483 10.2882C30.7957 10.9697 30.6435 12.3833 30.6435 12.3833L31.8494 13.2171C31.8494 13.2171 32.1998 11.0311 31.4919 9.65612C30.784 8.28109 28.8371 7.82275 28.8371 7.82275L28.4169 9.01751Z" fill="#FFF4CE"/>
<path d="M20.5287 31.9653C18.4715 31.9653 16.4078 31.5195 14.527 30.6513C11.7447 29.3666 9.55676 27.2305 8.36667 24.6369C8.34666 24.5936 8.31035 24.561 8.26567 24.547C8.22192 24.5331 8.17305 24.5386 8.13303 24.5629C7.52564 24.9267 6.80377 25.0594 6.10284 24.936C5.32418 24.7986 4.64515 24.3654 4.19089 23.7165C3.7371 23.0677 3.56257 22.2809 3.69987 21.5017C3.83717 20.7224 4.27002 20.0428 4.91833 19.5887C5.56667 19.134 6.35277 18.9594 7.1319 19.0973C7.19566 19.1084 7.25896 19.1219 7.32179 19.1373C7.47119 16.2014 8.74227 13.4504 10.9418 11.3334C13.2257 9.13486 16.3031 7.79431 19.6062 7.55862C23.0838 7.30895 26.4023 8.30622 28.9529 10.3613C31.5188 12.429 33.0602 15.3714 33.2934 18.6468C33.5387 22.0867 32.8364 24.9495 31.2065 27.1559C29.5002 29.4663 26.8156 30.9964 23.2277 31.7044C22.3401 31.8791 21.4348 31.9653 20.5287 31.9653ZM8.21773 23.656C8.32292 23.656 8.42857 23.6718 8.5305 23.7039C8.81441 23.7938 9.04666 23.9997 9.16953 24.2694C11.4021 29.1342 17.3726 31.9583 23.0564 30.8366C29.6496 29.5357 32.8848 25.3421 32.4119 18.7088C32.1964 15.6811 30.7708 12.9609 28.3985 11.0488C26.0221 9.13393 22.9223 8.20747 19.6686 8.43943C13.1033 8.90802 8.1684 13.7746 8.18934 19.7596C8.18981 19.9133 8.11068 20.0559 7.98037 20.1369C7.84958 20.2179 7.68668 20.2249 7.54985 20.156C7.37066 20.0656 7.17844 20.0023 6.97784 19.9669C6.43143 19.8709 5.8799 19.993 5.42425 20.312C4.96906 20.6311 4.66514 21.1076 4.56882 21.6545C4.47248 22.2018 4.59488 22.7537 4.91368 23.2093C5.23249 23.6648 5.70909 23.969 6.2555 24.0654C6.74699 24.1525 7.25384 24.0589 7.68156 23.8027C7.84632 23.7053 8.03203 23.656 8.21773 23.656Z" fill="#0D0C04"/>
<path fill-rule="evenodd" clip-rule="evenodd" d="M10.2386 15.9828C10.2386 15.9828 11.5278 12.9398 13.7968 12.4494C16.0662 11.9589 21.4861 12.4358 23.473 11.6011C25.4604 10.7664 29.2536 9.27539 28.8147 6.57006C28.3763 3.86476 24.8116 1.63175 20.3695 1.83437C15.9275 2.03699 14.1044 0.70575 14.1044 0.70575L15.1326 3.16793C15.1326 3.16793 13.1084 3.49678 11.3533 3.57783C9.59777 3.65888 5.40894 3.44229 5.40894 3.44229L7.14311 5.88116C7.14311 5.88116 5.61605 6.55003 4.58791 6.38421C3.55932 6.21839 2.27661 5.92121 2.27661 5.92121L5.43267 10.1385C5.43267 10.1385 2.70852 10.7608 0.621094 13.2845C0.621094 13.2845 3.32987 13.7648 5.22603 13.9632C7.1231 14.1621 10.7604 13.6599 10.7604 13.6599L10.2386 15.9828Z" fill="#F9C612"/>
<path fill-rule="evenodd" clip-rule="evenodd" d="M14.4534 1.25519C14.4534 1.25519 15.1269 2.18724 18.5906 2.57944C22.2665 2.62695 25.9755 3.38247 27.1874 5.54377C28.4008 7.70831 27.1237 9.58313 27.1237 9.58313C27.1237 9.58313 29.2516 7.73905 28.634 5.64717C28.0164 3.55528 24.5019 2.28366 20.988 1.84954C17.474 1.41589 14.4534 1.25519 14.4534 1.25519Z" fill="#FFF4CE"/>
<path fill-rule="evenodd" clip-rule="evenodd" d="M23.5984 6.76026C23.5984 6.76026 20.1124 4.65769 13.0021 4.6535C8.1174 4.599 7.0418 4.599 5.48169 3.68558C5.48169 3.68558 8.76294 3.68604 10.4087 3.4238C12.054 3.1611 20.5731 2.90351 23.5984 6.76026Z" fill="#FFF4CE"/>
<path fill-rule="evenodd" clip-rule="evenodd" d="M13.3181 7.85624C13.3181 7.85624 10.1532 7.28704 8.03088 7.5232C5.66372 7.78637 4.03708 7.27912 2.7688 6.52547C2.7688 6.52547 4.06314 6.28186 5.43892 6.1547C6.81472 6.02707 12.0484 6.26048 13.3181 7.85624Z" fill="#FFF4CE"/>
<path fill-rule="evenodd" clip-rule="evenodd" d="M0.890121 13.131C0.890121 13.131 2.96405 12.0942 5.9856 12.485C8.87263 12.859 11.3985 11.5981 13.055 10.8044C14.711 10.0107 16.0212 9.312 16.0212 9.312C16.0212 9.312 14.2227 7.31933 12.3946 6.91409C10.5654 6.50885 7.93573 6.24754 7.34464 5.99043C6.75355 5.73331 5.45641 3.28881 5.45641 3.28881C5.45641 3.28881 6.05262 4.67782 9.51818 5.08492C11.5405 5.32248 13.5646 5.63549 15.5404 6.13575C16.791 6.45249 17.7516 7.12882 18.796 7.8508C20.001 8.68364 22.3835 8.72277 23.5508 7.77767C24.0758 7.3524 23.6662 6.41197 23.0342 5.90053C22.7503 5.67089 22.2444 5.54373 21.9181 5.363C21.3023 5.02157 20.6968 4.71834 20.0196 4.51151C17.6078 3.77416 15.384 3.63815 15.384 3.63815L14.1883 0.791687C14.1883 0.791687 14.8971 2.18534 16.7677 2.71076C18.7509 3.26784 23.2036 2.9879 25.7411 6.67328C28.3368 10.442 25.3743 11.0815 25.3743 11.0815C25.3743 11.0815 21.9376 11.9866 19.8241 11.9461C17.7102 11.9055 15.3444 11.9843 14.3149 12.3429C13.2854 12.7011 12.5212 12.594 11.6452 13.731C10.7698 14.868 10.3872 16.4987 10.214 17.4154C10.0409 18.3321 10.2708 20.3713 9.58799 20.7006C8.90474 21.0304 8.6725 20.5893 8.06232 20.3168C7.45262 20.0448 6.72562 19.6037 5.55275 19.7486L4.41478 19.3866C4.41478 19.3866 4.42037 17.7717 5.11106 17.1774L3.30149 17.1713C3.30149 17.1713 3.57376 14.8848 5.16319 14.1726L6.41425 14.1227C6.41425 14.1227 5.46013 13.6211 4.37848 13.5218C3.29683 13.4231 0.574097 13.6224 0.574097 13.6224L0.890121 13.131Z" fill="#F78B0E"/>
<path fill-rule="evenodd" clip-rule="evenodd" d="M2.78406 6.26562C2.78406 6.26562 4.31345 8.38964 8.05219 9.17264C8.26117 9.21736 8.41382 9.39716 8.42499 9.61096C8.4357 9.82476 8.30212 10.0195 8.09873 10.0851C7.46855 10.2933 6.70157 10.4708 5.89778 10.4932C5.89778 10.4932 4.57129 9.63705 3.93087 8.95885C3.29044 8.28019 2.78406 6.26562 2.78406 6.26562Z" fill="#F78B0E"/>
<path d="M7.11536 22.8199C6.98039 22.8199 6.84681 22.758 6.76024 22.6411C6.67833 22.533 6.44562 22.3048 6.25805 22.3015C6.24036 22.301 6.22268 22.2996 6.20546 22.2973C6.04209 22.274 5.95785 22.3555 5.95785 22.3555C5.80938 22.5493 5.53199 22.5856 5.33883 22.4366C5.14522 22.288 5.10891 22.0104 5.25785 21.8171C5.29601 21.7672 5.64648 21.3387 6.30273 21.4188C6.95712 21.4472 7.41929 22.0458 7.47048 22.1152C7.6157 22.3113 7.57474 22.588 7.37879 22.7333C7.29874 22.7915 7.20659 22.8195 7.11536 22.8199Z" fill="#0D0C04"/>
<path d="M7.68436 14.5432C7.16541 14.5432 6.62692 14.4915 6.06468 14.3714C2.13602 13.5329 0.603373 14.0346 0.588479 14.0392C0.42046 14.0975 0.231498 14.049 0.11328 13.9158C-0.00493809 13.7831 -0.0342594 13.5925 0.0425358 13.4318C1.10836 11.204 3.22605 10.3893 4.58509 10.0921C2.50417 8.49258 1.77252 6.02993 1.73808 5.91022C1.68781 5.73694 1.74832 5.55063 1.89027 5.4393C2.0327 5.32844 2.22771 5.31493 2.38363 5.4053C3.10643 5.82498 4.43103 5.79144 5.96508 5.75278C7.87519 5.70434 10.2521 5.64425 12.5001 6.46218C16.2421 7.82416 18.2058 10.8756 18.5856 11.517C21.3292 11.5603 24.2977 11.3982 26.9027 9.53921C27.8289 8.87686 28.3516 7.80134 28.3004 6.66294C28.1207 2.65524 21.7621 2.26909 21.0379 2.23789C16.4772 2.04365 15.4602 1.75765 14.5634 1.27416C14.7016 1.87177 14.9874 2.65757 15.5715 3.1909C15.7516 3.35532 15.7646 3.6348 15.6003 3.81506C15.436 3.99532 15.1568 4.00837 14.9767 3.84394C13.6446 2.62822 13.5562 0.545658 13.5534 0.457622C13.5478 0.298786 13.6278 0.149268 13.7628 0.0658911C13.8978 -0.017486 14.0672 -0.022144 14.2064 0.0542463C14.359 0.137623 14.4949 0.216806 14.6229 0.291333C15.5654 0.84004 16.0844 1.14234 21.0756 1.35474C24.7138 1.50985 29.0199 2.98222 29.1828 6.62288C29.2471 8.06172 28.5866 9.4209 27.4161 10.2584C24.1884 12.5617 20.5673 12.4616 17.3731 12.3717C15.4472 12.3228 13.8345 12.9083 12.2739 13.478C10.8353 14.0043 9.35989 14.5432 7.68436 14.5432ZM2.11182 13.0024C3.05942 13.0024 4.41149 13.1151 6.24946 13.5073C8.37785 13.961 10.1232 13.3238 11.9709 12.6488C13.6092 12.0503 15.3038 11.4294 17.3973 11.489C17.436 11.49 17.4751 11.4914 17.5142 11.4923C16.8011 10.4703 15.0358 8.32582 12.1985 7.29316C10.1078 6.53205 7.91894 6.58795 5.98789 6.63686C4.82572 6.6662 3.77385 6.69322 2.92538 6.5218C3.38476 7.51441 4.34958 9.12186 6.04188 9.96868C6.22339 10.0595 6.31927 10.2621 6.27552 10.4601C6.23177 10.658 6.05817 10.8006 5.85571 10.8057C5.82359 10.8066 2.89885 10.917 1.31315 13.0322C1.53795 13.0145 1.80324 13.0024 2.11182 13.0024Z" fill="#0D0C04"/>
<path d="M24.2327 11.799C24.0759 11.799 23.9241 11.7151 23.8441 11.5675C23.7282 11.3532 23.8073 11.0858 24.0205 10.9694C24.0438 10.9564 24.8187 10.5092 24.9579 9.67635C25.0751 8.97394 24.7279 8.16485 23.9251 7.27193C21.57 4.65089 16.226 3.82876 12.0074 3.92844C11.11 3.95033 10.3737 3.98481 9.72355 4.01508C8.03918 4.09427 7.0455 4.14084 5.92149 3.82969C6.39018 4.54515 7.09902 5.42878 7.90327 5.7553C8.12901 5.84707 8.23792 6.10511 8.14623 6.33102C8.05454 6.5574 7.79669 6.66593 7.57096 6.57417C5.82189 5.86383 4.58617 3.29543 4.53451 3.18643C4.45492 3.01921 4.48843 2.82032 4.61736 2.68803C4.74676 2.55575 4.94456 2.51755 5.11305 2.59301C6.63964 3.27447 7.53047 3.23254 9.68213 3.13193C10.3365 3.10119 11.0784 3.06626 11.9855 3.04436C14.1269 2.99126 21.3652 3.10119 24.5813 6.68037C25.5773 7.78849 25.9958 8.85003 25.8259 9.83472C25.6076 11.1003 24.4892 11.7193 24.4417 11.7454C24.3756 11.7817 24.3035 11.799 24.2327 11.799Z" fill="#0D0C04"/>
<path d="M9.0271 21.435C8.67291 21.435 8.32617 21.3004 8.06274 21.0493C7.82118 20.8215 7.5759 20.6175 7.33574 20.4447C6.92198 20.1466 6.16473 20.0418 5.20409 20.1517C4.81546 20.1997 4.42544 20.0511 4.16433 19.7539C3.9037 19.4568 3.80642 19.0506 3.90416 18.6672C4.00283 18.2848 4.14665 17.9359 4.33049 17.6257L3.79199 17.7142C3.46061 17.7692 3.12271 17.6411 2.91048 17.3802C2.69824 17.1217 2.64053 16.7645 2.76015 16.4501C3.0515 15.6931 3.42384 15.1039 3.86786 14.6982C4.88342 13.7704 6.10655 13.7228 6.91593 13.6912C7.1128 13.6837 7.28269 13.6772 7.40556 13.659C7.64711 13.6241 7.87098 13.7908 7.90635 14.0326C7.94173 14.2743 7.77464 14.4984 7.53308 14.5338C7.36367 14.5585 7.17191 14.5659 6.95037 14.5748C6.22896 14.6027 5.2404 14.6409 4.4636 15.3508C4.03774 15.7402 3.75057 16.3359 3.58488 16.7668C3.5779 16.7845 3.58162 16.8059 3.59419 16.8213C3.60815 16.8381 3.62816 16.8465 3.64818 16.8427L5.43727 16.5479C5.64159 16.5139 5.84126 16.6266 5.91852 16.818C5.99578 17.0099 5.93016 17.2298 5.76028 17.3472C5.27344 17.6839 4.93694 18.2019 4.75961 18.8871C4.73448 18.9858 4.76008 19.0925 4.82803 19.1703C4.89598 19.2476 4.99791 19.2853 5.1003 19.2737C6.31786 19.1354 7.24219 19.2877 7.85144 19.7269C8.12278 19.9226 8.39831 20.1513 8.67012 20.4074C8.80602 20.5369 8.99964 20.5826 9.17697 20.5281C9.35383 20.4736 9.4888 20.3269 9.52836 20.1452C9.75642 19.1023 9.85975 18.1744 9.83508 17.3872C9.76992 15.2651 10.82 13.5645 12.9563 12.3324C13.1676 12.2109 13.4375 12.2831 13.5595 12.4945C13.6814 12.706 13.6088 12.9762 13.3975 13.0982C11.5391 14.17 10.6627 15.5641 10.718 17.3598C10.745 18.2191 10.6347 19.2201 10.3913 20.3338C10.2838 20.8267 9.91792 21.2244 9.43621 21.3726C9.30217 21.415 9.16393 21.435 9.0271 21.435Z" fill="#0D0C04"/>
<path d="M31.7181 14.561C31.6776 14.561 31.6362 14.5554 31.5952 14.5433C31.3611 14.4753 31.2262 14.2303 31.2941 13.996C31.3011 13.9722 31.9736 11.5822 31.1689 10.0046C30.3069 8.31329 28.6603 8.33425 28.6463 8.33472C28.401 8.33937 28.2 8.14793 28.1939 7.90386C28.1879 7.65978 28.3805 7.45716 28.6244 7.45111C28.7147 7.44552 30.844 7.42129 31.9559 9.60307C32.9203 11.4947 32.1747 14.1306 32.1426 14.2419C32.0858 14.4357 31.9094 14.561 31.7181 14.561Z" fill="#0D0C04"/>
<path fill-rule="evenodd" clip-rule="evenodd" d="M11.4117 17.0941L5.00975 18.9867C4.53735 19.1264 4.26742 19.6239 4.40704 20.0962C6.44792 19.0714 6.82213 20.3067 7.29407 20.167L11.9176 18.8064C12.39 18.6667 12.6599 18.1697 12.5203 17.6969C12.3807 17.2246 11.8841 16.9544 11.4117 17.0941Z" fill="#0D0C04"/>
<path fill-rule="evenodd" clip-rule="evenodd" d="M22.8612 17.3096C22.8612 17.3096 23.6427 16.4884 24.5884 16.3906C25.3582 16.311 25.8209 16.8592 25.8209 16.8592C26.1308 17.2421 26.6935 17.3003 27.0756 16.9896C27.4582 16.6794 27.5164 16.1163 27.206 15.7334C27.206 15.7334 26.1667 14.4315 24.405 14.6136C22.8747 14.7715 21.5883 16.0571 21.5883 16.0571C21.2429 16.4088 21.2476 16.9747 21.599 17.3199C21.9508 17.6659 22.5163 17.6608 22.8612 17.3096Z" fill="#0D0C04"/>
<path fill-rule="evenodd" clip-rule="evenodd" d="M28.2738 13.7253C28.2738 13.7253 26.2292 13.6498 26.4112 15.5009C26.5932 17.352 27.2364 19.6539 29.1693 19.9809C31.1022 20.3083 33.0598 19.6674 33.5243 18.6888C33.9883 17.7102 34.121 14.6573 33.8557 14.111C33.5909 13.5641 28.2738 13.7253 28.2738 13.7253Z" fill="#0D0C04"/>
<path fill-rule="evenodd" clip-rule="evenodd" d="M10.7046 16.9306C10.7046 16.9306 11.5153 20.8167 13.6228 21.9402C15.7307 23.0637 20.1308 21.785 21.4312 20.5013C22.7316 19.2171 21.9078 15.8266 21.9078 15.8266C21.9078 15.8266 21.8994 14.6668 20.1704 14.6398C17.9103 14.6044 14.3205 15.0879 10.7046 16.9306Z" fill="#0D0C04"/>
<path d="M15.7522 22.813C14.8712 22.813 14.0525 22.6686 13.4149 22.3286C11.6351 21.3797 10.7326 18.7438 10.411 17.5793C10.3356 17.6203 10.2602 17.6613 10.1857 17.7037C9.97308 17.823 9.70406 17.747 9.58445 17.5346C9.4653 17.3218 9.5407 17.0525 9.7534 16.9328C9.99635 16.7963 10.2439 16.6655 10.4948 16.5397C10.5022 16.5355 10.5101 16.5318 10.5181 16.528C13.8296 14.8777 17.7652 14.1613 20.1766 14.1963C21.8284 14.2219 22.3129 15.2019 22.3468 15.7646C22.472 16.3003 23.132 19.4402 21.7404 20.8138C20.6811 21.8609 18.0128 22.813 15.7522 22.813ZM11.2176 17.1713C11.4619 18.102 12.2713 20.7179 13.83 21.5488C15.6954 22.5433 19.9136 21.3779 21.1209 20.1859C22.0392 19.279 21.6906 16.8061 21.4788 15.93C21.4709 15.8969 21.4667 15.8629 21.4663 15.8289C21.4625 15.7623 21.3932 15.1004 20.1631 15.0808C18.2851 15.0519 14.5314 15.5983 11.2176 17.1713Z" fill="#0D0C04"/>
<path fill-rule="evenodd" clip-rule="evenodd" d="M18.5398 15.3479C18.0771 15.4155 17.7039 15.7606 17.5996 16.2166C17.4958 16.6726 17.6824 17.1458 18.0706 17.4072C18.6519 17.7994 19.3966 18.1478 20.3242 18.3216C20.6472 18.3812 20.9791 18.2857 21.2211 18.0635C21.4631 17.8409 21.586 17.5181 21.5539 17.1911C21.5217 16.8636 21.4729 16.5031 21.3984 16.1505C21.2737 15.5641 20.7305 15.1625 20.1329 15.2156C19.6759 15.2506 19.1057 15.2953 18.5398 15.3479Z" fill="white"/>
<path d="M30.3481 20.7555C29.4931 20.7555 28.6558 20.6344 28.028 20.4276C25.9257 19.7345 25.5887 15.3132 25.5868 15.2689C25.5193 13.8385 26.3301 13.3461 29.3582 12.9786C31.386 12.7317 32.9545 13.0843 33.8612 13.3913C33.9403 13.3974 34.0147 13.4244 34.078 13.4682C34.4774 13.6167 34.704 13.7402 34.7315 13.7551C34.9447 13.8734 35.0219 14.1422 34.9037 14.356C34.7999 14.5427 34.5812 14.6247 34.3852 14.5632C34.5556 15.8838 34.7417 18.3949 33.91 19.5491C33.291 20.4099 31.7942 20.7555 30.3481 20.7555ZM30.6958 13.7812C30.31 13.7812 29.8985 13.8035 29.4643 13.8562C26.4218 14.2251 26.4413 14.6457 26.4688 15.2275C26.52 16.3132 27.1409 19.2049 28.3044 19.5882C29.8552 20.0997 32.5556 19.9185 33.1928 19.033C33.8761 18.0842 33.6331 15.4329 33.4386 14.1869C32.8135 13.9898 31.8724 13.7812 30.6958 13.7812Z" fill="#0D0C04"/>
<path fill-rule="evenodd" clip-rule="evenodd" d="M31.595 13.9427C31.1114 13.9529 30.6874 14.2701 30.5408 14.7317C30.3937 15.1929 30.5566 15.6969 30.9453 15.9847C31.3711 16.3052 31.8947 16.5977 32.5305 16.8082C32.8484 16.9126 33.197 16.8581 33.4679 16.6615C33.7392 16.4654 33.8998 16.151 33.9002 15.8161C33.9016 15.5762 33.8942 15.32 33.8732 15.0652C33.8225 14.4593 33.3231 13.9888 32.7153 13.9767C32.383 13.9655 31.9934 13.952 31.595 13.9427Z" fill="white"/>
<path d="M22.3799 25.3147C22.2258 25.3147 22.0736 25.2486 21.968 25.1205C21.7804 24.8932 21.812 24.5569 22.0387 24.3687C22.0783 24.3361 23.0142 23.5675 24.0777 23.3328C25.4089 23.0384 26.4896 23.2433 26.5352 23.2522C26.8247 23.309 27.0136 23.5894 26.9569 23.8792C26.9005 24.1689 26.6194 24.3585 26.3304 24.3012C26.323 24.2998 25.4126 24.1325 24.3077 24.3766C23.5001 24.5546 22.7271 25.1857 22.7192 25.1922C22.6196 25.2747 22.4995 25.3147 22.3799 25.3147Z" fill="#0D0C04"/>
</g>
</g>
<defs>
<clipPath id="clip0_208_867">
<rect width="35" height="32" fill="white"/>
</clipPath>
</defs>
</svg>
